# xmcd CD database file
#
# Track frame offsets:
#	150
#	40950
#	75825
#	116025
#	151875
#	181950
#	223050
#	246600
#
# Disc length: 3877 seconds
#
# Revision: 0
# Processed by: cddbd v1.5PL3 Copyright (c) Steve Scherf et al.
# Submitted via: CDex 1.51
#
DISCID=670f2308
DTITLE=Kobayashi Yoichi (小林陽一) - Sukiyaki Village Be Bop Quintet Live In Japan
DYEAR=2002
DGENRE=Jazz
TTITLE0=Conviction
TTITLE1=Sukiyaki
TTITLE2=Caravan
TTITLE3=In A Sentimental Mood
TTITLE4=Tomorrow Is The Date
TTITLE5=Sweet And Lovely
TTITLE6=Day Dream
TTITLE7=Bill's Groove
EXTD=YEAR: 2002
EXTT0=
EXTT1=
EXTT2=
EXTT3=
EXTT4=
EXTT5=
EXTT6=
EXTT7=
PLAYORDER=
